<svg width="100" height="100" viewBox="0 0 100 100" fill="none" xmlns="http://www.w3.org/2000/svg">
<path d="M33 86.0399V84.3599C34.92 84.0932 36.6 83.4532 38.04 82.4399C39.48 81.4799 40.5733 79.7465 41.32 77.2399C42.12 74.7865 42.52 71.2399 42.52 66.5999V22.8399C42.52 20.8665 42.3867 19.4265 42.12 18.5199C41.8533 17.5599 41.2933 16.9199 40.44 16.5999C39.64 16.2265 38.44 16.0132 36.84 15.9599V14.3599C38.28 14.4132 40.2 14.4665 42.6 14.5199C45 14.5732 47.5333 14.5999 50.2 14.5999C52.8667 14.5999 55.48 14.5732 58.04 14.5199C60.6533 14.4665 62.7867 14.4132 64.44 14.3599V15.9599C62.84 16.0132 61.6133 16.2265 60.76 16.5999C59.96 16.9199 59.4267 17.5599 59.16 18.5199C58.8933 19.4265 58.76 20.8665 58.76 22.8399V52.1199C58.76 54.3065 58.76 56.6799 58.76 59.2399C58.8133 61.7465 58.7333 64.1999 58.52 66.5999C58.36 68.9999 57.9867 71.1332 57.4 72.9999C56.2267 76.6799 53.64 79.7732 49.64 82.2799C45.64 84.7865 40.0933 86.0399 33 86.0399Z" fill="#F5F5F5"/>
</svg>
